<mxfile host="Electron" agent="Mozilla/5.0 (Windows NT 10.0; Win64; x64) AppleWebKit/537.36 (KHTML, like Gecko) draw.io/27.0.5 Chrome/134.0.6998.205 Electron/35.3.0 Safari/537.36" version="27.0.5">
  <diagram name="Page-1" id="SNfxpt04ZqYH0eUJA9Yo">
    <mxGraphModel dx="856" dy="521" grid="1" gridSize="10" guides="1" tooltips="1" connect="1" arrows="1" fold="1" page="1" pageScale="1" pageWidth="850" pageHeight="1100" math="0" shadow="0">
      <root>
        <mxCell id="0" />
        <mxCell id="1" parent="0" />
        <mxCell id="Vp3dkBKJxOexwsg2gYSp-1" value="Employee" style="html=1;dashed=0;whiteSpace=wrap;" vertex="1" parent="1">
          <mxGeometry x="60" y="40" width="100" height="50" as="geometry" />
        </mxCell>
        <mxCell id="Vp3dkBKJxOexwsg2gYSp-2" value="D1" style="html=1;dashed=0;whiteSpace=wrap;shape=mxgraph.dfd.dataStoreID;align=left;spacingLeft=3;points=[[0,0],[0.5,0],[1,0],[0,0.5],[1,0.5],[0,1],[0.5,1],[1,1]];" vertex="1" parent="1">
          <mxGeometry x="360" y="40" width="100" height="30" as="geometry" />
        </mxCell>
        <mxCell id="Vp3dkBKJxOexwsg2gYSp-3" value="P1" style="swimlane;fontStyle=0;childLayout=stackLayout;horizontal=1;startSize=30;fillColor=#ffffff;horizontalStack=0;resizeParent=1;resizeParentMax=0;resizeLast=0;collapsible=0;marginBottom=0;swimlaneFillColor=#ffffff;" vertex="1" parent="1">
          <mxGeometry x="340" y="190" width="140" height="150" as="geometry" />
        </mxCell>
        <mxCell id="Vp3dkBKJxOexwsg2gYSp-4" value="P2" style="swimlane;fontStyle=0;childLayout=stackLayout;horizontal=1;startSize=20;fillColor=#ffffff;horizontalStack=0;resizeParent=1;resizeParentMax=0;resizeLast=0;collapsible=0;marginBottom=0;swimlaneFillColor=#ffffff;" vertex="1" parent="1">
          <mxGeometry x="570" y="190" width="160" height="150" as="geometry" />
        </mxCell>
        <mxCell id="Vp3dkBKJxOexwsg2gYSp-5" value="P3" style="swimlane;fontStyle=0;childLayout=stackLayout;horizontal=1;startSize=20;fillColor=#ffffff;horizontalStack=0;resizeParent=1;resizeParentMax=0;resizeLast=0;collapsible=0;marginBottom=0;swimlaneFillColor=#ffffff;" vertex="1" parent="1">
          <mxGeometry x="700" y="50" width="120" height="110" as="geometry" />
        </mxCell>
        <mxCell id="Vp3dkBKJxOexwsg2gYSp-6" value="P4" style="swimlane;fontStyle=0;childLayout=stackLayout;horizontal=1;startSize=20;fillColor=#ffffff;horizontalStack=0;resizeParent=1;resizeParentMax=0;resizeLast=0;collapsible=0;marginBottom=0;swimlaneFillColor=#ffffff;" vertex="1" parent="1">
          <mxGeometry x="720" y="360" width="120" height="110" as="geometry" />
        </mxCell>
        <mxCell id="Vp3dkBKJxOexwsg2gYSp-7" value="Calculate Gross Pay" style="text;html=1;align=center;verticalAlign=middle;resizable=0;points=[];autosize=1;strokeColor=none;fillColor=none;" vertex="1" parent="1">
          <mxGeometry x="360" y="240" width="100" height="30" as="geometry" />
        </mxCell>
        <mxCell id="Vp3dkBKJxOexwsg2gYSp-8" value="calculate amount withheld" style="text;html=1;align=center;verticalAlign=middle;resizable=0;points=[];autosize=1;strokeColor=none;fillColor=none;" vertex="1" parent="1">
          <mxGeometry x="570" y="230" width="160" height="30" as="geometry" />
        </mxCell>
        <mxCell id="Vp3dkBKJxOexwsg2gYSp-12" value="contactor master" style="text;html=1;align=center;verticalAlign=middle;resizable=0;points=[];autosize=1;strokeColor=none;fillColor=none;" vertex="1" parent="1">
          <mxGeometry x="390" y="40" width="110" height="30" as="geometry" />
        </mxCell>
        <mxCell id="Vp3dkBKJxOexwsg2gYSp-13" value="D2" style="html=1;dashed=0;whiteSpace=wrap;shape=mxgraph.dfd.dataStoreID;align=left;spacingLeft=3;points=[[0,0],[0.5,0],[1,0],[0,0.5],[1,0.5],[0,1],[0.5,1],[1,1]];" vertex="1" parent="1">
          <mxGeometry x="340" y="480" width="100" height="30" as="geometry" />
        </mxCell>
        <mxCell id="Vp3dkBKJxOexwsg2gYSp-14" value="check reconciliation" style="text;html=1;align=center;verticalAlign=middle;resizable=0;points=[];autosize=1;strokeColor=none;fillColor=none;" vertex="1" parent="1">
          <mxGeometry x="360" y="480" width="130" height="30" as="geometry" />
        </mxCell>
        <mxCell id="Vp3dkBKJxOexwsg2gYSp-11" value="calculate net pay" style="text;html=1;align=center;verticalAlign=middle;resizable=0;points=[];autosize=1;strokeColor=none;fillColor=none;" vertex="1" parent="1">
          <mxGeometry x="690" y="120" width="120" height="30" as="geometry" />
        </mxCell>
        <mxCell id="Vp3dkBKJxOexwsg2gYSp-15" value="print employee payslip" style="text;html=1;align=center;verticalAlign=middle;resizable=0;points=[];autosize=1;strokeColor=none;fillColor=none;" vertex="1" parent="1">
          <mxGeometry x="710" y="420" width="140" height="30" as="geometry" />
        </mxCell>
        <mxCell id="Vp3dkBKJxOexwsg2gYSp-16" value="D2" style="html=1;dashed=0;whiteSpace=wrap;shape=mxgraph.dfd.dataStoreID;align=left;spacingLeft=3;points=[[0,0],[0.5,0],[1,0],[0,0.5],[1,0.5],[0,1],[0.5,1],[1,1]];" vertex="1" parent="1">
          <mxGeometry x="80" y="200" width="100" height="30" as="geometry" />
        </mxCell>
        <mxCell id="Vp3dkBKJxOexwsg2gYSp-17" value="Time and work records" style="text;html=1;align=center;verticalAlign=middle;resizable=0;points=[];autosize=1;strokeColor=none;fillColor=none;" vertex="1" parent="1">
          <mxGeometry x="170" y="190" width="150" height="30" as="geometry" />
        </mxCell>
        <mxCell id="Vp3dkBKJxOexwsg2gYSp-18" value="" style="endArrow=classic;html=1;rounded=0;exitX=1;exitY=0.5;exitDx=0;exitDy=0;entryX=0.014;entryY=0.2;entryDx=0;entryDy=0;entryPerimeter=0;" edge="1" parent="1" source="Vp3dkBKJxOexwsg2gYSp-16" target="Vp3dkBKJxOexwsg2gYSp-3">
          <mxGeometry width="50" height="50" relative="1" as="geometry">
            <mxPoint x="210" y="310" as="sourcePoint" />
            <mxPoint x="260" y="260" as="targetPoint" />
          </mxGeometry>
        </mxCell>
        <mxCell id="Vp3dkBKJxOexwsg2gYSp-19" value="Employee" style="text;html=1;align=center;verticalAlign=middle;resizable=0;points=[];autosize=1;strokeColor=none;fillColor=none;" vertex="1" parent="1">
          <mxGeometry x="100" y="200" width="80" height="30" as="geometry" />
        </mxCell>
        <mxCell id="Vp3dkBKJxOexwsg2gYSp-20" value="" style="endArrow=classic;html=1;rounded=0;entryX=0.7;entryY=-0.009;entryDx=0;entryDy=0;entryPerimeter=0;" edge="1" parent="1" target="Vp3dkBKJxOexwsg2gYSp-6">
          <mxGeometry width="50" height="50" relative="1" as="geometry">
            <mxPoint x="800" y="160" as="sourcePoint" />
            <mxPoint x="830" y="240" as="targetPoint" />
          </mxGeometry>
        </mxCell>
        <mxCell id="Vp3dkBKJxOexwsg2gYSp-21" value="net pay" style="text;html=1;align=center;verticalAlign=middle;resizable=0;points=[];autosize=1;strokeColor=none;fillColor=none;" vertex="1" parent="1">
          <mxGeometry x="750" y="230" width="60" height="30" as="geometry" />
        </mxCell>
        <mxCell id="Vp3dkBKJxOexwsg2gYSp-23" value="" style="endArrow=classic;html=1;rounded=0;exitX=0.5;exitY=1;exitDx=0;exitDy=0;entryX=0.125;entryY=0;entryDx=0;entryDy=0;entryPerimeter=0;" edge="1" parent="1" source="Vp3dkBKJxOexwsg2gYSp-1" target="Vp3dkBKJxOexwsg2gYSp-19">
          <mxGeometry width="50" height="50" relative="1" as="geometry">
            <mxPoint x="40" y="440" as="sourcePoint" />
            <mxPoint x="90" y="390" as="targetPoint" />
          </mxGeometry>
        </mxCell>
        <mxCell id="Vp3dkBKJxOexwsg2gYSp-24" value="" style="endArrow=classic;html=1;rounded=0;exitX=0.273;exitY=1.133;exitDx=0;exitDy=0;exitPerimeter=0;entryX=0.6;entryY=0.013;entryDx=0;entryDy=0;entryPerimeter=0;" edge="1" parent="1" source="Vp3dkBKJxOexwsg2gYSp-12" target="Vp3dkBKJxOexwsg2gYSp-3">
          <mxGeometry width="50" height="50" relative="1" as="geometry">
            <mxPoint x="400" y="300" as="sourcePoint" />
            <mxPoint x="450" y="250" as="targetPoint" />
          </mxGeometry>
        </mxCell>
        <mxCell id="Vp3dkBKJxOexwsg2gYSp-29" value="" style="endArrow=classic;html=1;rounded=0;exitX=0;exitY=0.767;exitDx=0;exitDy=0;exitPerimeter=0;" edge="1" parent="1" source="Vp3dkBKJxOexwsg2gYSp-8">
          <mxGeometry width="50" height="50" relative="1" as="geometry">
            <mxPoint x="400" y="300" as="sourcePoint" />
            <mxPoint x="480" y="250" as="targetPoint" />
          </mxGeometry>
        </mxCell>
        <mxCell id="Vp3dkBKJxOexwsg2gYSp-30" value="Gross pay" style="text;html=1;align=center;verticalAlign=middle;resizable=0;points=[];autosize=1;strokeColor=none;fillColor=none;" vertex="1" parent="1">
          <mxGeometry x="480" y="208" width="80" height="30" as="geometry" />
        </mxCell>
        <mxCell id="Vp3dkBKJxOexwsg2gYSp-32" value="" style="endArrow=classic;html=1;rounded=0;exitX=1;exitY=-0.033;exitDx=0;exitDy=0;exitPerimeter=0;" edge="1" parent="1" source="Vp3dkBKJxOexwsg2gYSp-8">
          <mxGeometry width="50" height="50" relative="1" as="geometry">
            <mxPoint x="400" y="300" as="sourcePoint" />
            <mxPoint x="770" y="160" as="targetPoint" />
            <Array as="points">
              <mxPoint x="770" y="230" />
            </Array>
          </mxGeometry>
        </mxCell>
        <mxCell id="Vp3dkBKJxOexwsg2gYSp-33" value="withheld tax" style="text;html=1;align=center;verticalAlign=middle;resizable=0;points=[];autosize=1;strokeColor=none;fillColor=none;" vertex="1" parent="1">
          <mxGeometry x="695" y="178" width="90" height="30" as="geometry" />
        </mxCell>
        <mxCell id="Vp3dkBKJxOexwsg2gYSp-34" value="Employee record" style="text;html=1;align=center;verticalAlign=middle;resizable=0;points=[];autosize=1;strokeColor=none;fillColor=none;" vertex="1" parent="1">
          <mxGeometry x="410" y="108" width="110" height="30" as="geometry" />
        </mxCell>
        <mxCell id="Vp3dkBKJxOexwsg2gYSp-35" value="D3" style="html=1;dashed=0;whiteSpace=wrap;shape=mxgraph.dfd.dataStoreID;align=left;spacingLeft=3;points=[[0,0],[0.5,0],[1,0],[0,0.5],[1,0.5],[0,1],[0.5,1],[1,1]];" vertex="1" parent="1">
          <mxGeometry x="350" y="390" width="100" height="30" as="geometry" />
        </mxCell>
        <mxCell id="Vp3dkBKJxOexwsg2gYSp-36" value="employee master" style="text;html=1;align=center;verticalAlign=middle;resizable=0;points=[];autosize=1;strokeColor=none;fillColor=none;" vertex="1" parent="1">
          <mxGeometry x="360" y="390" width="120" height="30" as="geometry" />
        </mxCell>
        <mxCell id="Vp3dkBKJxOexwsg2gYSp-37" value="" style="endArrow=classic;html=1;rounded=0;" edge="1" parent="1" target="Vp3dkBKJxOexwsg2gYSp-36">
          <mxGeometry width="50" height="50" relative="1" as="geometry">
            <mxPoint x="720" y="400" as="sourcePoint" />
            <mxPoint x="450" y="250" as="targetPoint" />
          </mxGeometry>
        </mxCell>
        <mxCell id="Vp3dkBKJxOexwsg2gYSp-38" value="" style="endArrow=classic;html=1;rounded=0;exitX=0.333;exitY=1.333;exitDx=0;exitDy=0;exitPerimeter=0;entryX=0.315;entryY=-0.033;entryDx=0;entryDy=0;entryPerimeter=0;" edge="1" parent="1" source="Vp3dkBKJxOexwsg2gYSp-36" target="Vp3dkBKJxOexwsg2gYSp-14">
          <mxGeometry width="50" height="50" relative="1" as="geometry">
            <mxPoint x="400" y="300" as="sourcePoint" />
            <mxPoint x="450" y="250" as="targetPoint" />
          </mxGeometry>
        </mxCell>
        <mxCell id="Vp3dkBKJxOexwsg2gYSp-39" value="check reconciliation records" style="text;html=1;align=center;verticalAlign=middle;resizable=0;points=[];autosize=1;strokeColor=none;fillColor=none;" vertex="1" parent="1">
          <mxGeometry x="400" y="440" width="170" height="30" as="geometry" />
        </mxCell>
      </root>
    </mxGraphModel>
  </diagram>
</mxfile>
